<?xml version="1.0" standalone="no" ?>
<!DOCTYPE svg PUBLIC "-//W3C//DTD SVG 20010904//EN" "http://www.w3.org/TR/2001/REC-SVG-20010904/DTD/svg10.dtd">
<svg version="1.0" xmlns="http://www.w3.org/2000/svg" width="256.000000pt" height="256.000000pt" viewBox="0 0 256.000000 256.000000" preserveAspectRatio="xMidYMid meet">
	<metadata>
Created by potrace 1.15, written by Peter Selinger 2001-2017
</metadata>
	<g transform="translate(0.000000,256.000000) scale(0.100000,-0.100000)" fill="#ffffff" stroke="none">
		<path d="M1046 2544 c-37 -7 -90 -20 -117 -29 l-48 -16 -3 -86 -3 -85 -90 -23
c-128 -33 -240 -76 -397 -152 -113 -54 -138 -70 -138 -87 0 -12 -11 -179 -25
-371 -84 -1182 -115 -1628 -115 -1659 l0 -36 190 0 190 0 0 98 c0 290 46 812
91 1030 9 47 13 52 37 52 l27 0 -3 -221 c-2 -139 1 -226 7 -233 6 -7 65 -23
131 -36 l120 -24 0 -43 c0 -40 -2 -43 -22 -38 -46 11 -221 45 -229 45 -11 0
-12 -300 0 -318 10 -17 163 -82 269 -116 82 -26 240 -56 295 -56 l27 0 0 1124
0 1123 -78 6 c-91 7 -157 26 -157 46 0 32 73 45 265 45 193 0 265 -12 265 -44
0 -20 -63 -40 -147 -47 l-68 -6 0 -1125 0 -1125 82 8 c111 9 247 45 364 95
157 67 144 46 144 231 0 88 -4 159 -9 159 -8 0 -183 -34 -228 -45 -21 -5 -23
-2 -23 38 l0 42 118 24 c64 13 123 26 130 28 9 4 12 60 12 235 l0 229 27 -3
c31 -3 28 8 62 -223 31 -207 50 -443 57 -680 3 -116 7 -225 10 -242 l5 -33
189 0 190 0 0 33 c0 18 -20 300 -45 627 -25 327 -59 777 -75 1000 -17 223 -33
410 -35 417 -11 34 -363 185 -523 225 l-92 23 0 87 0 87 -53 16 c-159 46 -428
60 -581 29z" />
	</g>
</svg>